<?xml version="1.0" encoding="utf-8"?>
<!DOCTYPE svg PUBLIC "-//W3C//DTD SVG 1.1//EN" "http://www.w3.org/Graphics/SVG/1.1/DTD/svg11.dtd">
<svg version="1.1" xmlns="http://www.w3.org/2000/svg" xmlns:xlink="http://www.w3.org/1999/xlink" x="0px" y="0px" viewBox="0 0 1000 1000" enable-background="new 0 0 1000 1000" xml:space="preserve">
<g><path style='fill: #1890ff;' d="M500,10C229.8,10,10,229.8,10,500c0,270.2,219.8,490,490,490c270.2,0,490-219.8,490-490C990,229.8,770.2,10,500,10z M500,928.8C263.6,928.8,71.3,736.4,71.3,500C71.3,263.6,263.6,71.3,500,71.3c236.4,0,428.8,192.3,428.8,428.8C928.8,736.4,736.4,928.8,500,928.8z M683.8,469.4H530.6V316.3c0-16.9-13.7-30.6-30.6-30.6c-16.9,0-30.6,13.7-30.6,30.6v153.1H316.3c-16.9,0-30.6,13.7-30.6,30.6c0,16.9,13.7,30.6,30.6,30.6h153.1v153.1c0,16.9,13.7,30.6,30.6,30.6c16.9,0,30.6-13.7,30.6-30.6V530.6h153.1c16.9,0,30.6-13.7,30.6-30.6C714.4,483.1,700.7,469.4,683.8,469.4z"/></g>
</svg>